<?xml version="1.0" encoding="UTF-8" standalone="no"?>
<svg
   xmlns:dc="http://purl.org/dc/elements/1.1/"
   xmlns:cc="http://creativecommons.org/ns#"
   xmlns:rdf="http://www.w3.org/1999/02/22-rdf-syntax-ns#"
   xmlns:svg="http://www.w3.org/2000/svg"
   xmlns="http://www.w3.org/2000/svg"
   width="40"
   height="40"
   viewBox="0 0 10.583333 10.583334"
   version="1.1"
   id="svg8">
  <defs
     id="defs2" />
  <metadata
     id="metadata5">
    <rdf:RDF>
      <cc:Work
         rdf:about="">
        <dc:format>image/svg+xml</dc:format>
        <dc:type
           rdf:resource="http://purl.org/dc/dcmitype/StillImage" />
        <dc:title></dc:title>
      </cc:Work>
    </rdf:RDF>
  </metadata>
  <g
     id="layer1">
    <path
       style="fill:none;stroke:#000000;stroke-width:0.264583px;stroke-linecap:butt;stroke-linejoin:miter;stroke-opacity:1"
       d="M 1.8708867,1.5033911 C 1.836821,1.3266244 1.6597205,1.3585357 1.5200954,1.3864606 c -0.027841,0.00557 -0.057793,0.0047 -0.083522,0.016704 -0.092627,0.043226 -0.1779158,0.1006982 -0.2672695,0.1503391 -0.21810268,0.1211681 -0.26170324,0.5308237 -0.1503391,0.7349912 0.017073,0.0313 0.04704,0.053856 0.066817,0.083522 0.046889,0.070334 0.016567,0.080397 0.1002261,0.1336348 0.084267,0.053624 0.1531117,0.059856 0.2505652,0.066817 0.061094,0.00436 0.1256416,0.019369 0.1837478,0 0.011812,-0.00394 0.0079,-0.024605 0.016705,-0.033409 0.056842,-0.056842 0.1358527,-0.098622 0.1837476,-0.1670435 0.029042,-0.041489 0.080851,-0.1756376 0.1002261,-0.2171565 0.037968,-0.08136 0.09601,-0.1523413 0.1336348,-0.2338608 0.041384,-0.089664 0.08218,-0.3381131 0.050113,-0.434313 C 2.0723094,1.3893724 1.8921722,1.3363476 1.8040693,1.3363476"
       id="path833" />
    <path
       style="fill:none;stroke:#000000;stroke-width:0.264583px;stroke-linecap:butt;stroke-linejoin:miter;stroke-opacity:1"
       d="M 7.8343381,1.6871389 C 7.8232018,1.6537302 7.8294097,1.6076258 7.8009291,1.5869128 7.7350505,1.5390011 7.3007963,1.5367564 7.2997988,1.5367998 6.8491562,1.5563929 6.3799799,1.6628925 6.0135642,1.9377041 c -0.070114,0.052586 -0.1161243,0.173582 -0.1503389,0.2505651 -0.1208317,0.2718712 -0.019611,0.5727891 0.2004521,0.7684 0.07363,0.065449 0.2094492,0.1199293 0.3006783,0.1503389 0.2593358,0.086445 0.5494594,0.066818 0.8185129,0.066818 0.083521,0 0.1680146,0.0127 0.2505651,0 0.096705,-0.014878 0.3513894,-0.14696 0.4176086,-0.1837482 C 8.3234365,2.7276366 8.4869606,2.465292 8.5025118,1.9209997 8.5049724,1.8352338 8.5425718,1.5525105 8.4523986,1.4365737 8.0846519,0.96375642 7.3703698,1.113944 6.865486,1.1358955"
       id="path835" />
    <path
       style="fill:none;stroke:#000000;stroke-width:0.264583px;stroke-linecap:butt;stroke-linejoin:miter;stroke-opacity:1"
       d="m 1.0523738,4.1927906 c 0.5322914,0 0.1360618,-0.00644 1.1525998,0.083522 0.8800365,0.077879 1.3762933,0.1240932 2.3051996,0.1837478 0.2981875,0.01915 1.2178879,0.029793 1.3697563,0.033409 0.8524693,0.020296 1.7031213,0.033409 2.5557649,0.033409 C 8.4121834,5.0504996 8.243918,5.5514697 8.1517206,6.0636774 8.0707746,6.5133765 8.0597406,7.0264151 7.784225,7.4167294 7.750091,7.4650854 7.703863,7.5038224 7.6672946,7.5503642 7.6424876,7.5819362 7.6276086,7.6209922 7.6004776,7.6505902 7.2172008,8.06871 6.2688174,8.1903216 5.7295905,8.1350163 5.660895,8.1279706 5.2408453,8.0218209 5.1616428,8.0013815 4.9994497,7.9595252 4.8400471,7.9070506 4.6772167,7.8677467 4.5944189,7.847761 4.5089514,7.8395803 4.4266516,7.8176337 3.8783454,7.6714187 3.3180194,7.4183343 2.8564431,7.0826425 2.7531734,7.0075373 2.5377855,6.7806893 2.4555388,6.6984426 2.353467,6.5963707 2.2468023,6.5109234 2.1548606,6.3977643 1.9248503,6.1146748 1.7157923,5.7033757 1.5535041,5.3787993 1.4795965,5.230984 1.4266898,5.0750575 1.353052,4.9277819 1.3223262,4.8663303 1.250143,4.7553727 1.2194172,4.6939211 1.1688555,4.5927977 1.1571561,4.4828418 1.1358955,4.3765385 1.116701,4.2805661 1.1191911,4.3813326 1.1191911,4.3264255"
       id="path837" />
    <path
       style="fill:none;stroke:#000000;stroke-width:0.264583px;stroke-linecap:butt;stroke-linejoin:miter;stroke-opacity:1"
       d="m 9.6049985,7.0492336 c -0.02784,-0.016703 -0.05368,-0.037323 -0.083521,-0.050113 -0.09541,-0.04089 -0.5057162,0.069874 -0.6013567,0.1336347 -0.066988,0.044659 -0.095151,0.1530175 -0.1336347,0.2171565 -0.0081,0.013504 -0.023961,0.020809 -0.033409,0.033409 C 8.6487929,7.5223665 8.61061,7.8140495 8.7029641,7.967973 c 0.020429,0.034049 0.048896,0.032192 0.066817,0.050113 0.00881,0.0088 0.0079,0.024604 0.016706,0.033409 0.057621,0.057621 0.3530835,-0.00288 0.4510172,0.016703 0.072801,0.01456 0.2773378,0.1269986 0.334087,0.1837478 0.1653129,0.1653127 0.1906285,0.3979508 0.100226,0.6013564 -0.036666,0.0825 -0.1029454,0.1293616 -0.1503389,0.2004523 -0.00977,0.01465 -0.00425,0.037662 -0.016706,0.050113 -0.017608,0.017608 -0.047688,0.017468 -0.066817,0.033409 -0.015422,0.012854 -0.018299,0.036893 -0.033409,0.050113 C 9.3685694,9.2188695 9.2127327,9.2945281 9.1539812,9.30432 9.0657252,9.319028 8.9437147,9.337463 8.8533029,9.321023 8.8439529,9.319333 8.6562973,9.254206 8.6528508,9.254206"
       id="path839" />
    <path
       style="fill:none;stroke:#000000;stroke-width:0.264583px;stroke-linecap:butt;stroke-linejoin:miter;stroke-opacity:1"
       d="m 9.1205726,6.4478772 c -0.02982,0.1313868 -0.019412,0.2679475 -0.033409,0.4009044 -0.00652,0.061911 -0.028444,0.1216927 -0.033409,0.1837478 -0.024919,0.3114887 0,0.6393108 0,0.9521476 0,0.3266979 -0.019317,0.6613596 0.016703,0.9855565 0.00778,0.070037 0.036419,0.1319807 0.050113,0.200452 0.01165,0.058245 0.014507,0.1437484 0.033409,0.2004523 0.042038,0.126115 0.083522,0.2923233 0.083522,0.434313"
       id="path841" />
    <path
       style="fill:none;stroke:#000000;stroke-width:0.264583px;stroke-linecap:butt;stroke-linejoin:miter;stroke-opacity:1"
       d="m 2.2216779,7.8510423 c -0.00557,-0.02784 0.00337,-0.063445 -0.016704,-0.083522 C 2.1666299,7.7291763 2.0701612,7.7310533 2.0212261,7.7341113 1.7751218,7.7494943 1.6206394,7.8207203 1.436574,7.9679723 1.410489,7.9888403 1.369679,8.0015373 1.353052,8.0347893 1.337995,8.0649023 1.333048,8.0981533 1.319643,8.1350153 1.297156,8.1968563 1.244106,8.2926038 1.26953,8.3688763 c 0.077262,0.2317856 0.4963955,0.2879635 0.6848782,0.3507912 0.046187,0.015396 0.079047,0.071813 0.1169304,0.100226 0.034457,0.025842 0.074676,0.045197 0.1002261,0.083522 0.063072,0.094608 0.1162511,0.2863514 0.083522,0.4009043 -0.028666,0.1003303 -0.1290759,0.1075132 -0.2004521,0.1503389 -0.022991,0.013795 -0.060531,0.053023 -0.083522,0.066818 -0.080124,0.048074 -0.1768198,0.057772 -0.2672695,0.066817 -0.1113098,0.011131 -0.2210647,0.016703 -0.3340869,0.016703"
       id="path843" />
    <path
       style="fill:none;stroke:#000000;stroke-width:0.264583px;stroke-linecap:butt;stroke-linejoin:miter;stroke-opacity:1"
       d="m 1.9544084,7.3165032 c -0.031786,0.1605963 -0.051348,0.3235587 -0.083522,0.4844259 -0.009,0.045024 -0.022272,0.08909 -0.033409,0.133635 -0.00557,0.050113 -0.00768,0.1007308 -0.016704,0.1503391 -0.00223,0.01225 -0.01516,0.021053 -0.016704,0.033409 -0.023996,0.1919695 0.01926,0.3920487 0,0.5846519 -0.015539,0.1553914 -0.074691,0.3145097 -0.1002261,0.4677217 -0.00374,0.022463 0.00796,0.076337 0,0.100226 -0.010213,0.03064 -0.016704,0.044631 -0.016704,0.083522 0,0.1399077 -0.025852,0.2897013 0.066817,0.4009044 0.025206,0.030247 0.059898,0.052024 0.083522,0.083522 0.046335,0.06178 0.050113,0.1860168 0.050113,0.1503389"
       id="path845" />
  </g>
</svg>
