<?xml version="1.0" encoding="UTF-8" standalone="no"?>
<svg
   xmlns:dc="http://purl.org/dc/elements/1.1/"
   xmlns:cc="http://creativecommons.org/ns#"
   xmlns:rdf="http://www.w3.org/1999/02/22-rdf-syntax-ns#"
   xmlns:svg="http://www.w3.org/2000/svg"
   xmlns="http://www.w3.org/2000/svg"
   xmlns:sodipodi="http://sodipodi.sourceforge.net/DTD/sodipodi-0.dtd"
   xmlns:inkscape="http://www.inkscape.org/namespaces/inkscape"
   width="16"
   height="16"
   viewBox="0 0 16 16"
   version="1.1"
   id="svg1018"
   sodipodi:docname="regexp.svg"
   inkscape:version="1.0.1 (3bc2e813f5, 2020-09-07)">
  <metadata
     id="metadata1024">
    <rdf:RDF>
      <cc:Work
         rdf:about="">
        <dc:format>image/svg+xml</dc:format>
        <dc:type
           rdf:resource="http://purl.org/dc/dcmitype/StillImage" />
      </cc:Work>
    </rdf:RDF>
  </metadata>
  <defs
     id="defs1022" />
  <sodipodi:namedview
     pagecolor="#ffffff"
     bordercolor="#666666"
     borderopacity="1"
     objecttolerance="10"
     gridtolerance="10"
     guidetolerance="10"
     inkscape:pageopacity="0"
     inkscape:pageshadow="2"
     inkscape:window-width="1339"
     inkscape:window-height="1093"
     id="namedview1020"
     showgrid="false"
     inkscape:zoom="52.625"
     inkscape:cx="8"
     inkscape:cy="8"
     inkscape:window-x="986"
     inkscape:window-y="125"
     inkscape:window-maximized="0"
     inkscape:current-layer="g1016" />
  <rect
     id="frame"
     width="16"
     height="16"
     fill="none" />
  <g
     fill="none"
     fill-rule="evenodd"
     id="g1016">
    <path
       fill="#9aa7b0"
       fill-opacity="0.8"
       d="M 7,1 3,5 h 4 z"
       id="path1008" />
    <path
       fill="#9aa7b0"
       fill-opacity="0.8"
       d="M 13,8.073 A 4.5,4.5 0 0 0 8.92,15 H 3 V 6 H 8 V 1 h 5 z"
       id="path1010" />
    <path
       fill="#231f20"
       fill-opacity="0.7"
       d="M 5,12 H 8 V 11 H 5 Z M 5,10 H 9 V 9 H 5 Z M 5,8 h 6 V 7 H 5 Z"
       id="path1012" />
    <path
       fill="#40b6e0"
       d="m 13.333,11.286 1.981,-1.143 0.7,1.212 -1.981,1.144 1.981,1.144 -0.7,1.212 -1.981,-1.144 V 16 h -1.4 v -2.29 l -1.981,1.144 -0.7,-1.212 1.981,-1.144 -1.981,-1.144 0.7,-1.212 1.981,1.143 V 9 h 1.4 v 2.287 z"
       id="path1014"
       style="fill:#e05555;fill-opacity:1" />
  </g>
</svg>
